<mxfile host="www.draw.io" modified="2020-07-06T23:09:12.275Z" agent="5.0 (Macintosh; Intel Mac OS X 10_14_5) AppleWebKit/537.36 (KHTML, like Gecko) Chrome/81.0.4044.138 Safari/537.36" etag="GC9-0Q7ygtU9W8T0ejzp" version="13.3.6" type="github">
  <diagram id="QsalHgZ7xtVMif590F9L" name="Page-1">
    <mxGraphModel dx="1076" dy="562" grid="1" gridSize="10" guides="1" tooltips="1" connect="1" arrows="1" fold="1" page="1" pageScale="1" pageWidth="1100" pageHeight="850" math="0" shadow="0">
      <root>
        <mxCell id="VzaksNeYcjJcxJXgKLHE-0" />
        <mxCell id="VzaksNeYcjJcxJXgKLHE-1" parent="VzaksNeYcjJcxJXgKLHE-0" />
      </root>
    </mxGraphModel>
  </diagram>
</mxfile>
